<?xml version="1.0" encoding="utf-8"?>
<!-- Generator: Adobe Illustrator 16.0.0, SVG Export Plug-In . SVG Version: 6.00 Build 0)  -->
<!DOCTYPE svg PUBLIC "-//W3C//DTD SVG 1.1//EN" "http://www.w3.org/Graphics/SVG/1.1/DTD/svg11.dtd">
<svg version="1.1" id="Layer_1" xmlns="http://www.w3.org/2000/svg" xmlns:xlink="http://www.w3.org/1999/xlink" x="0px" y="0px"
	 width="300px" height="86px" viewBox="0 0 300 86" enable-background="new 0 0 300 86" xml:space="preserve">
<g>
	<path fill="#FFFFFF" d="M292.924,0h-0.005H274.44c-2.22,0-4.228,1.356-5.535,2.998c-1.393-1.004-2.96-1.626-4.695-2.14
		c-1.773-0.526-3.692-0.711-5.703-0.711c-1.932,0-3.821,0.3-5.616,0.813c-1.984,0.567-3.802,1.476-5.402,2.664
		c-1.64,1.219-3.025,2.647-4.122,4.425C242.434,9.565,241.78,11,241.387,13h-6.958l0.72-3.892c0.102-0.479,0.156-1.248,0.156-1.758
		c0-3.909-3.166-7.351-7.076-7.351h-0.005h-18.478c-2.359,0-4.484,1.486-5.777,3.311c-0.411-0.286-0.836-0.394-1.282-0.639
		c-1.428-0.785-3.01-1.288-4.703-1.655c-0.859-0.189-1.836-0.598-2.959-0.661C194.166,0.307,193.308,0,192.479,0h-7.759
		c-0.606,0-1.196,0.081-1.761,0.226C182.395,0.083,181.812,0,181.218,0h-21.439c-1.594,0-3.071,0.871-4.267,1.778
		c-0.854-0.433-1.757-0.637-2.711-0.92c-1.773-0.526-3.692-0.711-5.703-0.711c-1.932,0-3.821,0.3-5.616,0.813
		c-1.984,0.567-3.801,1.476-5.402,2.664c-0.796,0.591-1.53,0.945-2.202,1.674C132.979,2.387,130.273,0,127.118,0h-7.007
		c-2.784,0-5.309,1.954-6.453,4.493l-1.653,3.828c-0.27-0.475-0.557-0.858-0.877-1.308c-1.686-2.359-3.927-4.403-6.663-5.525
		C102.521,0.676,100.284,0,97.629,0h-9.01c-2.4,0-4.555,1.206-5.841,3.086C81.497,1.216,79.352,0,76.941,0h-7.007
		c-2.784,0-5.309,1.954-6.453,4.493l-1.334,3.12c-0.781-1.321-1.734-2.429-2.86-3.454c-1.467-1.332-3.19-2.425-5.128-3.113
		C52.346,0.4,50.37,0,48.287,0h-0.334c-2.606,0-5.022,0.572-7.181,1.479c-2.155,0.904-4.061,2.242-5.662,3.868
		c-1.517,1.54-2.761,3.376-3.698,5.406c-0.856,1.85-1.471,3.862-1.825,5.948l-1.698,9.775c-0.162,0.867-0.273,1.818-0.33,2.819
		c-0.065,1.107-0.05,2.104,0.045,3.039c0.191,1.926,0.707,3.205,1.53,4.901c0.4,0.824,0.874,1.766,1.406,1.766H12.584
		c-3.436,0-6.375,3.032-6.971,6.417L0.107,76.982c-0.362,2.062,0.205,4.032,1.549,5.634C3.001,84.218,4.986,85,7.078,85h18.479
		c2.887,0,5.417-1.463,6.508-4.026c0.271,0.639,0.628,1.101,1.083,1.642C34.492,84.217,36.477,85,38.569,85h5.965
		c3.44,0,6.382-2.189,6.973-5.576l0.981-5.48c0.392-0.014,0.771,0.034,1.146,0.006l-0.705,1.597
		c-0.987,2.19-0.796,4.465,0.508,6.484C54.741,84.049,56.98,85,59.382,85h6.215c2.467,0,4.727-1.282,6.006-3.332
		C72.859,83.677,75.09,85,77.61,85h5.965c0.521,0,1.036-0.062,1.537-0.172C85.616,84.94,86.135,85,86.661,85h5.923
		c1.716,0,3.309-0.616,4.546-1.653C98.391,84.403,99.997,85,101.677,85h6.34c1.479,0,2.863-0.46,4.01-1.25
		c1.166,0.8,2.554,1.25,3.998,1.25h5.965c2.265,0,4.308-0.791,5.612-2.491c0.063,0.083,0.119,0.028,0.186,0.107
		c1.345,1.602,3.33,2.384,5.421,2.384h5.965c2.367,0,4.498-0.888,5.79-2.723c1.232,0.972,2.622,1.918,4.16,2.505
		c1.86,0.709,3.901,1.218,6.066,1.218h0.292c2.789,0,5.386-0.563,7.72-1.658c0.519-0.243,1.018-0.801,1.505-1.085
		C166.025,84.55,167.8,85,169.665,85h5.965c1.021,0,1.995-0.223,2.879-0.616c0.896,0.397,1.872,0.616,2.876,0.616h5.965
		c3.44,0,6.381-2.189,6.973-5.576l0.981-5.48c0.945-0.029,1.845-0.033,2.685-0.154c0.862-0.123,1.644-0.277,2.395-0.499
		l-0.693,3.956c-0.362,2.06,0.205,3.899,1.549,5.501c1.345,1.602,3.33,2.252,5.422,2.252h18.478c3.444,0,6.388-2.195,6.975-5.588
		l0.959-5.405c0.351-2.028-0.2-4.039-1.506-5.627c0.31-0.606,0.536-1.23,0.663-1.93l0.96-5.302c0.103-0.479,0.156-0.967,0.156-1.476
		c0-0.291-0.017-0.574-0.051-0.856c1.696-1.023,2.943-2.741,3.315-4.806l0.96-5.316c0.102-0.479,0.156-1.541,0.156-2.05
		c0-3.91-3.166-7.643-7.076-7.643h-0.005h-0.937l0.945-5.039c0.138-0.799,0.132-1.961-0.001-1.961h7.442
		c0.131,1,0.34,2.164,0.641,3.131c0.69,2.22,1.808,4.272,3.321,5.961c1.539,1.719,3.455,3.1,5.696,4.036
		c2.128,0.888,4.512,1.356,7.085,1.356c2.042,0,4.032-0.289,5.916-0.875c1.18-0.367,2.296-0.895,3.351-1.481
		c1.304,1.218,3.026,1.872,4.832,1.872h18.478c3.444,0,6.388-2.436,6.975-5.83l0.959-5.527c0.352-2.029-0.2-4.1-1.506-5.689
		c0.311-0.606,0.537-1.26,0.663-1.959l0.959-5.316c0.103-0.48,0.157-0.975,0.157-1.484c0-0.291-0.018-0.577-0.051-0.859
		c1.696-1.023,2.942-2.742,3.315-4.808l0.959-5.319C299.946,8.729,300,7.91,300,7.4C300,3.491,296.833,0,292.924,0z M65.751,45.024
		c0.608-0.373,1.159-0.836,1.632-1.379c-0.125,0.214-0.251,0.427-0.355,0.656l-0.642,1.425
		C66.183,45.482,65.967,45.253,65.751,45.024z M32.895,69.895c-0.244-0.511-0.544-0.999-0.911-1.445
		c0.31-0.606,0.536-1.266,0.663-1.965l0.96-5.318c0.103-0.479,0.156-0.977,0.156-1.486c0-0.291-0.017-0.578-0.051-0.859
		c0.479-0.289,0.916-0.638,1.313-1.029L32.895,69.895z"/>
	<g>
		<path fill="#E29305" d="M43.615,39.422c-1.307,0-2.489-0.202-3.545-0.604c-1.057-0.403-1.968-0.953-2.732-1.648
			c-0.765-0.694-1.376-1.515-1.835-2.46c-0.459-0.945-0.745-1.975-0.855-3.087c-0.056-0.556-0.063-1.195-0.021-1.919
			c0.042-0.723,0.118-1.376,0.229-1.96l1.71-9.844c0.25-1.473,0.674-2.857,1.272-4.15c0.597-1.293,1.369-2.419,2.314-3.378
			c0.945-0.959,2.065-1.71,3.358-2.252c1.293-0.543,2.774-0.814,4.442-0.814h0.334c1.279,0,2.446,0.188,3.503,0.563
			c1.057,0.375,1.967,0.911,2.732,1.605c0.764,0.696,1.383,1.523,1.856,2.482c0.473,0.959,0.751,2.022,0.834,3.19
			c0.055,0.5,0.069,1.078,0.042,1.731c-0.028,0.654-0.083,1.272-0.167,1.856h-5.923c0.055-0.389,0.111-0.848,0.167-1.376
			c0.055-0.528,0.055-0.959,0-1.293c-0.083-0.862-0.375-1.571-0.876-2.127c-0.5-0.556-1.334-0.834-2.503-0.834h-0.333
			c-1.474,0-2.635,0.521-3.483,1.564s-1.412,2.315-1.689,3.816l-1.71,9.677c-0.056,0.39-0.111,0.821-0.167,1.293
			s-0.056,0.876,0,1.209c0.083,0.862,0.389,1.572,0.918,2.127c0.528,0.557,1.362,0.834,2.503,0.834h0.25
			c1.446,0,2.614-0.5,3.504-1.501c0.89-1.001,1.46-2.294,1.709-3.879l0.083-0.5h5.881c-0.111,1.502-0.438,2.955-0.98,4.359
			c-0.542,1.404-1.3,2.648-2.273,3.733c-0.974,1.084-2.156,1.954-3.545,2.607c-1.391,0.653-2.961,0.98-4.713,0.98H43.615z"/>
		<path fill="#E29305" d="M74.063,39.005l-0.626-8.05h-7.925l-3.462,8.05h-6.215L69.934,7.722h7.007l3.087,31.283H74.063z
			 M72.228,15.397h-0.167l-4.087,9.885h5.005L72.228,15.397z"/>
		<path fill="#E29305" d="M83.114,39.005L88.62,7.722h9.01c1.696,0,3.073,0.223,4.129,0.667c1.501,0.612,2.704,1.55,3.608,2.815
			c0.904,1.266,1.439,2.718,1.606,4.358c0.056,0.529,0.069,1.154,0.042,1.877s-0.098,1.376-0.208,1.96l-1.585,9.01
			c-0.417,2.392-1.266,4.491-2.545,6.299c-1.279,1.808-3.017,3.059-5.214,3.754c-0.556,0.167-1.175,0.299-1.856,0.396
			c-0.682,0.098-1.397,0.146-2.148,0.146H83.114z M100.925,18.984c0.055-0.389,0.11-0.82,0.167-1.293
			c0.056-0.472,0.056-0.875,0-1.209c-0.083-0.861-0.396-1.57-0.938-2.127c-0.542-0.556-1.495-0.834-2.857-0.834H93.5L90.038,33.25
			h3.712c0.528,0,1.049-0.063,1.564-0.188c0.514-0.125,0.952-0.298,1.313-0.521c0.723-0.473,1.314-1.12,1.772-1.94
			c0.459-0.82,0.786-1.745,0.98-2.774L100.925,18.984z"/>
		<path fill="#E29305" d="M124.24,39.005l-0.625-8.05h-7.925l-3.462,8.05h-6.215l14.099-31.283h7.007l3.087,31.283H124.24z
			 M122.405,15.397h-0.167l-4.088,9.885h5.006L122.405,15.397z"/>
		<path fill="#E29305" d="M150.101,17.441c0.083-0.611,0.09-1.195,0.021-1.752c-0.069-0.556-0.229-1.05-0.48-1.48
			c-0.25-0.431-0.611-0.778-1.084-1.043c-0.474-0.264-1.057-0.396-1.752-0.396c-0.724,0-1.342,0.098-1.856,0.292
			c-0.515,0.195-0.932,0.445-1.251,0.751c-0.32,0.306-0.557,0.653-0.709,1.042c-0.153,0.39-0.244,0.766-0.271,1.126
			c-0.083,1.029,0.118,1.85,0.604,2.46c0.486,0.612,1.188,1.126,2.106,1.543l1.752,0.792c0.945,0.417,1.87,0.918,2.773,1.502
			c0.903,0.584,1.689,1.272,2.357,2.064s1.174,1.717,1.522,2.774c0.347,1.057,0.438,2.252,0.271,3.587
			c-0.167,1.418-0.57,2.669-1.209,3.754c-0.641,1.084-1.439,1.996-2.398,2.732c-0.959,0.737-2.044,1.293-3.253,1.668
			s-2.482,0.563-3.816,0.563c-1.641,0-3.094-0.265-4.359-0.792c-1.266-0.528-2.315-1.258-3.149-2.19
			c-0.834-0.931-1.446-2.023-1.835-3.274c-0.39-1.252-0.542-2.6-0.458-4.046h6.006c-0.056,0.64-0.007,1.251,0.146,1.835
			c0.152,0.584,0.396,1.099,0.73,1.543c0.333,0.445,0.757,0.8,1.272,1.063c0.514,0.265,1.119,0.396,1.814,0.396
			c1.251,0,2.294-0.34,3.128-1.022c0.834-0.681,1.307-1.633,1.418-2.857c0.056-0.556-0.021-1.063-0.229-1.522
			c-0.208-0.459-0.479-0.869-0.813-1.23c-0.334-0.362-0.709-0.674-1.126-0.939c-0.417-0.264-0.82-0.48-1.209-0.646l-1.752-0.792
			c-1.084-0.473-2.051-1.001-2.898-1.585c-0.849-0.584-1.551-1.265-2.107-2.044c-0.557-0.778-0.945-1.654-1.167-2.628
			c-0.224-0.973-0.25-2.071-0.083-3.295c0.194-1.335,0.604-2.509,1.23-3.524c0.626-1.015,1.397-1.863,2.315-2.545
			c0.917-0.681,1.96-1.188,3.128-1.522c1.167-0.334,2.391-0.501,3.67-0.501c1.334,0,2.565,0.167,3.691,0.501
			c1.126,0.333,2.1,0.834,2.92,1.501c0.82,0.667,1.46,1.495,1.919,2.482c0.458,0.987,0.688,2.134,0.688,3.441
			c0,0.307-0.021,0.633-0.063,0.98c-0.042,0.348-0.09,0.758-0.146,1.23H150.101z"/>
		<path fill="#E29305" d="M162.031,39.005l4.463-25.527h-7.758l1.043-5.756h21.439l-1.042,5.756h-7.717l-4.463,25.527H162.031z"/>
		<path fill="#E29305" d="M194.231,39.005c-0.306-0.417-0.494-0.973-0.563-1.668c-0.07-0.695-0.077-1.39-0.021-2.085l0.459-4.922
			c0.139-1.501-0.104-2.565-0.73-3.191c-0.625-0.625-1.731-0.938-3.316-0.938h-2.711l-2.211,12.805h-5.923l5.505-31.283h7.759
			c0.695,0,1.411,0.021,2.148,0.063c0.736,0.042,1.355,0.119,1.856,0.229c1.028,0.223,1.96,0.563,2.794,1.022
			c0.834,0.458,1.529,1.036,2.085,1.731s0.959,1.501,1.21,2.419c0.25,0.917,0.305,1.96,0.167,3.128
			c-0.167,1.363-0.709,2.69-1.627,3.983c-0.917,1.293-2.293,2.371-4.129,3.233v0.042c1.251,0.473,2.127,1.168,2.628,2.085
			c0.5,0.918,0.681,2.156,0.542,3.712l-0.542,5.381c-0.057,0.807-0.028,1.564,0.083,2.273c0.111,0.709,0.417,1.287,0.917,1.731
			l-0.042,0.25H194.231z M191.812,20.736c1.501,0,2.662-0.382,3.483-1.147c0.82-0.765,1.286-1.745,1.397-2.94
			c0.083-0.834-0.049-1.495-0.396-1.981c-0.348-0.486-0.869-0.827-1.564-1.022c-0.278-0.083-0.612-0.139-1.001-0.167
			c-0.389-0.027-0.834-0.042-1.334-0.042h-2.794l-1.251,7.299H191.812z"/>
		<path fill="#E29305" d="M204.241,39.005l5.506-31.283h18.478l-1,5.547h-12.514l-1.209,6.924h10.344l-1.001,5.547H212.5
			l-1.334,7.716h12.513l-0.959,5.548H204.241z"/>
		<path fill="#E29305" d="M227.892,25.199l0.875-4.922h14.974l-0.875,4.922H227.892z"/>
		<path fill="#E29305" d="M261.511,17.441c0.083-0.611,0.09-1.195,0.021-1.752c-0.069-0.556-0.229-1.05-0.48-1.48
			c-0.25-0.431-0.612-0.778-1.084-1.043c-0.474-0.264-1.057-0.396-1.752-0.396c-0.724,0-1.342,0.098-1.856,0.292
			c-0.515,0.195-0.932,0.445-1.251,0.751c-0.32,0.306-0.557,0.653-0.709,1.042c-0.153,0.39-0.244,0.766-0.271,1.126
			c-0.083,1.029,0.118,1.85,0.604,2.46c0.486,0.612,1.188,1.126,2.106,1.543l1.752,0.792c0.945,0.417,1.87,0.918,2.773,1.502
			c0.903,0.584,1.689,1.272,2.357,2.064s1.174,1.717,1.522,2.774c0.347,1.057,0.438,2.252,0.271,3.587
			c-0.167,1.418-0.57,2.669-1.209,3.754c-0.641,1.084-1.439,1.996-2.398,2.732c-0.959,0.737-2.044,1.293-3.253,1.668
			s-2.482,0.563-3.816,0.563c-1.642,0-3.094-0.265-4.359-0.792c-1.266-0.528-2.315-1.258-3.149-2.19
			c-0.834-0.931-1.446-2.023-1.835-3.274c-0.39-1.252-0.542-2.6-0.458-4.046h6.006c-0.056,0.64-0.007,1.251,0.146,1.835
			c0.152,0.584,0.396,1.099,0.73,1.543c0.333,0.445,0.757,0.8,1.272,1.063c0.514,0.265,1.119,0.396,1.814,0.396
			c1.251,0,2.294-0.34,3.128-1.022c0.834-0.681,1.307-1.633,1.418-2.857c0.056-0.556-0.021-1.063-0.229-1.522
			c-0.208-0.459-0.479-0.869-0.813-1.23c-0.334-0.362-0.709-0.674-1.126-0.939c-0.417-0.264-0.82-0.48-1.209-0.646l-1.752-0.792
			c-1.084-0.473-2.051-1.001-2.898-1.585c-0.849-0.584-1.551-1.265-2.107-2.044c-0.557-0.778-0.946-1.654-1.168-2.628
			c-0.223-0.973-0.25-2.071-0.083-3.295c0.194-1.335,0.604-2.509,1.23-3.524c0.626-1.015,1.397-1.863,2.315-2.545
			c0.917-0.681,1.96-1.188,3.128-1.522c1.167-0.334,2.391-0.501,3.67-0.501c1.334,0,2.565,0.167,3.691,0.501
			c1.126,0.333,2.1,0.834,2.92,1.501c0.82,0.667,1.46,1.495,1.919,2.482c0.458,0.987,0.688,2.134,0.688,3.441
			c0,0.307-0.021,0.633-0.063,0.98c-0.042,0.348-0.09,0.758-0.146,1.23H261.511z"/>
		<path fill="#E29305" d="M268.935,39.005l5.505-31.283h18.479l-1.001,5.547h-12.513l-1.21,6.924h10.344l-1.001,5.547h-10.344
			l-1.335,7.716h12.514l-0.959,5.548H268.935z"/>
		<path fill="#0781A2" d="M7.078,78.492l5.506-31.283h18.478l-1.001,5.547H17.548l-1.209,6.924h10.344l-1.001,5.548H15.337
			l-1.334,7.716h12.513l-0.959,5.548H7.078z"/>
		<path fill="#0781A2" d="M38.569,78.492l5.506-31.283h8.885c0.89,0,1.751,0.056,2.585,0.167c0.834,0.112,1.529,0.279,2.086,0.501
			c1.779,0.695,3.163,1.884,4.15,3.566c0.987,1.683,1.383,3.622,1.188,5.818c-0.195,2.168-0.904,4.046-2.127,5.631
			c-1.224,1.586-2.781,2.739-4.671,3.462c-0.557,0.223-1.224,0.39-2.002,0.5c-0.779,0.112-1.641,0.167-2.586,0.167h-5.047
			l-2.002,11.471H38.569z M51.791,61.307c0.723,0,1.314-0.048,1.773-0.146c0.458-0.098,0.855-0.23,1.188-0.397
			c0.64-0.333,1.161-0.827,1.564-1.481c0.403-0.653,0.632-1.382,0.688-2.189c0.083-0.807-0.014-1.522-0.292-2.147
			c-0.279-0.626-0.682-1.092-1.21-1.398c-0.556-0.389-1.474-0.583-2.753-0.583h-3.754l-1.46,8.342H51.791z"/>
		<path fill="#0781A2" d="M77.61,78.492l-0.625-8.05H69.06l-3.462,8.05h-6.215l14.099-31.283h7.007l3.087,31.283H77.61z
			 M75.775,54.883h-0.167l-4.088,9.886h5.005L75.775,54.883z"/>
		<path fill="#0781A2" d="M101.677,78.492c-0.306-0.417-0.495-0.974-0.563-1.669c-0.07-0.693-0.077-1.39-0.021-2.085l0.459-4.922
			c0.139-1.501-0.104-2.565-0.73-3.191c-0.625-0.625-1.731-0.938-3.316-0.938h-2.711l-2.211,12.806h-5.923l5.505-31.283h7.759
			c0.695,0,1.411,0.021,2.148,0.063c0.736,0.042,1.355,0.119,1.856,0.229c1.028,0.223,1.96,0.563,2.794,1.021
			c0.834,0.459,1.529,1.037,2.085,1.732c0.556,0.695,0.959,1.501,1.209,2.419c0.25,0.917,0.306,1.959,0.167,3.128
			c-0.167,1.363-0.709,2.69-1.627,3.983c-0.917,1.293-2.294,2.37-4.129,3.232v0.042c1.251,0.473,2.127,1.168,2.627,2.086
			c0.501,0.917,0.681,2.155,0.542,3.712l-0.542,5.381c-0.056,0.806-0.028,1.564,0.083,2.273c0.111,0.709,0.417,1.286,0.917,1.73
			l-0.042,0.251H101.677z M99.258,60.222c1.501,0,2.662-0.382,3.483-1.146c0.82-0.765,1.286-1.746,1.397-2.94
			c0.083-0.835-0.049-1.495-0.396-1.982c-0.348-0.487-0.869-0.827-1.564-1.022c-0.278-0.083-0.612-0.138-1.001-0.167
			c-0.39-0.027-0.834-0.042-1.334-0.042h-2.794l-1.252,7.299H99.258z"/>
		<path fill="#0781A2" d="M116.025,78.492l4.463-25.527h-7.758l1.042-5.756h21.439l-1.043,5.756h-7.717l-4.463,25.527H116.025z"/>
		<path fill="#0781A2" d="M133.209,78.492l5.506-31.283h5.965l-5.506,31.283H133.209z"/>
		<path fill="#0781A2" d="M155.19,78.908c-1.308,0-2.489-0.201-3.545-0.604c-1.057-0.403-1.968-0.952-2.732-1.647
			c-0.765-0.695-1.376-1.515-1.835-2.46c-0.458-0.946-0.745-1.975-0.855-3.087c-0.056-0.557-0.063-1.196-0.021-1.92
			c0.041-0.723,0.118-1.376,0.229-1.96l1.71-9.844c0.25-1.473,0.674-2.857,1.272-4.149c0.598-1.293,1.369-2.419,2.315-3.379
			c0.945-0.96,2.064-1.71,3.358-2.251c1.293-0.543,2.773-0.814,4.442-0.814h0.334c1.279,0,2.446,0.188,3.503,0.563
			c1.057,0.375,1.967,0.911,2.732,1.605c0.764,0.695,1.383,1.523,1.856,2.482c0.473,0.959,0.751,2.022,0.834,3.19
			c0.055,0.501,0.069,1.078,0.042,1.732c-0.028,0.654-0.083,1.272-0.167,1.856h-5.923c0.055-0.389,0.11-0.849,0.167-1.376
			c0.055-0.528,0.055-0.96,0-1.294c-0.083-0.861-0.375-1.57-0.876-2.127c-0.501-0.556-1.334-0.834-2.503-0.834h-0.333
			c-1.475,0-2.635,0.521-3.483,1.564c-0.848,1.042-1.412,2.315-1.689,3.816l-1.71,9.677c-0.056,0.389-0.112,0.82-0.167,1.293
			c-0.056,0.473-0.056,0.875,0,1.209c0.083,0.863,0.389,1.572,0.918,2.127c0.528,0.557,1.362,0.835,2.502,0.835h0.25
			c1.446,0,2.614-0.501,3.504-1.503s1.46-2.294,1.71-3.879l0.083-0.5h5.881c-0.111,1.502-0.438,2.956-0.98,4.36
			c-0.542,1.404-1.3,2.648-2.273,3.732c-0.974,1.084-2.156,1.953-3.546,2.607c-1.391,0.654-2.961,0.979-4.713,0.979H155.19z"/>
		<path fill="#0781A2" d="M169.665,78.492l5.505-31.283h5.965l-5.505,31.283H169.665z"/>
		<path fill="#0781A2" d="M181.384,78.492l5.506-31.283h8.885c0.89,0,1.751,0.056,2.585,0.167c0.834,0.112,1.529,0.279,2.085,0.501
			c1.78,0.695,3.163,1.884,4.15,3.566c0.987,1.683,1.383,3.622,1.189,5.818c-0.195,2.168-0.904,4.046-2.127,5.631
			c-1.224,1.586-2.781,2.739-4.671,3.462c-0.557,0.223-1.224,0.39-2.002,0.5c-0.779,0.112-1.641,0.167-2.586,0.167h-5.047
			l-2.002,11.471H181.384z M194.606,61.307c0.723,0,1.314-0.048,1.773-0.146c0.459-0.098,0.855-0.23,1.188-0.397
			c0.64-0.333,1.161-0.827,1.564-1.481c0.403-0.653,0.632-1.382,0.688-2.189c0.083-0.807-0.014-1.522-0.292-2.147
			c-0.279-0.626-0.682-1.092-1.21-1.398c-0.556-0.389-1.474-0.583-2.753-0.583h-3.754l-1.46,8.342H194.606z"/>
		<path fill="#0781A2" d="M206.661,78.492l5.506-31.283h18.478l-1.001,5.547H217.13l-1.209,6.924h10.344l-1.001,5.548h-10.344
			l-1.334,7.716h12.513l-0.959,5.548H206.661z"/>
	</g>
</g>
</svg>
