<?xml version="1.0" encoding="utf-8"?>
<!-- Generator: Adobe Illustrator 16.0.0, SVG Export Plug-In . SVG Version: 6.00 Build 0)  -->
<!DOCTYPE svg PUBLIC "-//W3C//DTD SVG 1.1//EN" "http://www.w3.org/Graphics/SVG/1.1/DTD/svg11.dtd">
<svg version="1.1" id="Layer_1" xmlns="http://www.w3.org/2000/svg" xmlns:xlink="http://www.w3.org/1999/xlink" x="0px" y="0px"
	 width="24px" height="24px" viewBox="0 0 24 24" enable-background="new 0 0 24 24" xml:space="preserve">
<g>
	<g>
		<path fill-rule="evenodd" clip-rule="evenodd" fill="#333333" d="M22.5,2.245h-6.005V0.75c0-0.415-0.336-0.75-0.75-0.75
			c-0.415,0-0.75,0.335-0.75,0.75v1.495h-6V0.75C8.995,0.335,8.659,0,8.244,0c-0.414,0-0.75,0.335-0.75,0.75v1.495H1.5
			c-0.828,0-1.5,0.672-1.5,1.5V22.5C0,23.328,0.672,24,1.5,24h21c0.828,0,1.5-0.672,1.5-1.5V3.745C24,2.917,23.328,2.245,22.5,2.245
			z M22.5,22.5h-21V3.745h5.994V4.5c0,0.415,0.336,0.751,0.75,0.751c0.415,0,0.751-0.336,0.751-0.751V3.745h6V4.5
			c0,0.415,0.335,0.751,0.75,0.751c0.414,0,0.75-0.336,0.75-0.751V3.745H22.5V22.5z M17.25,11.997h1.5c0.414,0,0.75-0.336,0.75-0.75
			v-1.5c0-0.414-0.336-0.75-0.75-0.75h-1.5c-0.414,0-0.75,0.336-0.75,0.75v1.5C16.5,11.661,16.836,11.997,17.25,11.997z
			 M17.25,17.999h1.5c0.414,0,0.75-0.337,0.75-0.751v-1.5c0-0.414-0.336-0.75-0.75-0.75h-1.5c-0.414,0-0.75,0.336-0.75,0.75v1.5
			C16.5,17.662,16.836,17.999,17.25,17.999z M12.75,14.998h-1.5c-0.414,0-0.75,0.336-0.75,0.75v1.5c0,0.414,0.336,0.751,0.75,0.751
			h1.5c0.414,0,0.75-0.337,0.75-0.751v-1.5C13.5,15.334,13.164,14.998,12.75,14.998z M12.75,8.996h-1.5
			c-0.414,0-0.75,0.336-0.75,0.75v1.5c0,0.415,0.336,0.75,0.75,0.75h1.5c0.414,0,0.75-0.336,0.75-0.75v-1.5
			C13.5,9.333,13.164,8.996,12.75,8.996z M6.75,8.996h-1.5c-0.414,0-0.75,0.336-0.75,0.75v1.5c0,0.415,0.336,0.75,0.75,0.75h1.5
			c0.414,0,0.75-0.336,0.75-0.75v-1.5C7.5,9.333,7.164,8.996,6.75,8.996z M6.75,14.998h-1.5c-0.414,0-0.75,0.336-0.75,0.75v1.5
			c0,0.414,0.336,0.751,0.75,0.751h1.5c0.414,0,0.75-0.337,0.75-0.751v-1.5C7.5,15.334,7.164,14.998,6.75,14.998z"/>
	</g>
</g>
</svg>
