<?xml version="1.0" encoding="utf-8"?>
<!-- Generator: Adobe Illustrator 16.0.0, SVG Export Plug-In . SVG Version: 6.00 Build 0)  -->
<!DOCTYPE svg PUBLIC "-//W3C//DTD SVG 1.1//EN" "http://www.w3.org/Graphics/SVG/1.1/DTD/svg11.dtd">
<svg version="1.1" id="Layer_1" xmlns="http://www.w3.org/2000/svg" xmlns:xlink="http://www.w3.org/1999/xlink" x="0px" y="0px"
	 width="112px" height="102px" viewBox="0 0 112 102" enable-background="new 0 0 112 102" xml:space="preserve">
<path fill="#FFB334" d="M49.048,89.854c0.458-1.349,0.11-2.836-0.954-4.08L22.681,56.07c-1.064-1.244-2.478-1.815-3.878-1.567
	c-1.4,0.248-2.534,1.269-3.11,2.803L1.333,95.554c-0.587,1.564-0.393,3.083,0.534,4.165c0.926,1.083,2.394,1.508,4.025,1.166
	l39.916-8.378C47.408,92.17,48.589,91.204,49.048,89.854z M7.444,95.707l-0.367-1.965l2.818-7.505l1.609,8.618L7.444,95.707z
	 M17.617,93.571l-3.48-18.636l2.818-7.504l4.722,25.289L17.617,93.571z M27.973,91.398l-5.219-27.945l5.397,6.308l3.881,20.785
	L27.973,91.398z M38.233,89.244l-1.839-9.847l5.397,6.309l0.502,2.687L38.233,89.244z M43.668,16.335
	c0.438-0.334,0.795-0.157,0.793,0.394l-0.006,2.854c-0.002,0.552,0.367,1.259,0.82,1.573l2.343,1.624
	c0.452,0.313,0.393,0.708-0.129,0.877l-2.712,0.876c-0.524,0.169-1.082,0.74-1.239,1.268l-0.817,2.735
	c-0.158,0.528-0.552,0.594-0.874,0.148l-1.669-2.313c-0.323-0.446-1.036-0.801-1.586-0.789l-2.848,0.067
	c-0.549,0.013-0.734-0.341-0.41-0.786l1.68-2.306c0.324-0.445,0.441-1.236,0.259-1.756l-0.942-2.694
	c-0.182-0.52,0.097-0.805,0.62-0.634l2.707,0.888c0.522,0.172,1.31,0.038,1.746-0.296L43.668,16.335z M59.296,1.168
	c0.438-0.334,0.794-0.157,0.792,0.395l-0.007,2.855c-0.002,0.551,0.368,1.259,0.82,1.572l2.343,1.624
	c0.453,0.313,0.395,0.708-0.129,0.877l-2.711,0.876c-0.523,0.169-1.081,0.74-1.24,1.268l-0.817,2.735
	c-0.159,0.528-0.551,0.595-0.874,0.148l-1.669-2.313c-0.321-0.447-1.035-0.801-1.585-0.789l-2.848,0.066
	c-0.55,0.013-0.735-0.341-0.411-0.787l1.681-2.305c0.324-0.445,0.441-1.235,0.258-1.756l-0.942-2.693
	c-0.182-0.521,0.097-0.805,0.62-0.634l2.708,0.888c0.522,0.171,1.309,0.039,1.745-0.296L59.296,1.168z M93.21,33.899
	c0.348-0.266,0.632-0.125,0.631,0.314l-0.007,2.273c0,0.438,0.293,1.002,0.654,1.252l1.865,1.292c0.36,0.25,0.314,0.564-0.103,0.699
	l-2.158,0.698c-0.418,0.134-0.862,0.588-0.987,1.01l-0.652,2.177c-0.125,0.42-0.438,0.474-0.695,0.118l-1.328-1.841
	c-0.257-0.356-0.825-0.638-1.263-0.628l-2.268,0.054c-0.438,0.01-0.585-0.272-0.326-0.627l1.338-1.835
	c0.258-0.355,0.351-0.984,0.207-1.398l-0.751-2.145c-0.145-0.414,0.077-0.642,0.493-0.505l2.156,0.707
	c0.416,0.137,1.042,0.03,1.391-0.236L93.21,33.899z M72.795,68.914c0.276-0.211,0.502-0.098,0.501,0.25l-0.005,1.805
	c0,0.349,0.233,0.797,0.52,0.996l1.481,1.027c0.287,0.198,0.249,0.447-0.082,0.555L73.495,74.1
	c-0.331,0.107-0.683,0.468-0.783,0.802l-0.517,1.729c-0.101,0.334-0.349,0.376-0.553,0.095l-1.056-1.463
	c-0.204-0.282-0.655-0.507-1.003-0.499l-1.801,0.042c-0.348,0.008-0.465-0.216-0.26-0.498l1.063-1.458
	c0.206-0.281,0.279-0.781,0.164-1.11l-0.596-1.703c-0.115-0.329,0.062-0.509,0.392-0.402l1.712,0.563
	c0.33,0.108,0.829,0.024,1.105-0.187L72.795,68.914z M87.735,6.257c0.437-0.334,0.793-0.157,0.792,0.394l-0.007,2.854
	c-0.001,0.551,0.368,1.259,0.821,1.572l2.342,1.624c0.453,0.313,0.394,0.708-0.129,0.877l-2.71,0.876
	c-0.525,0.169-1.083,0.74-1.24,1.268l-0.818,2.735c-0.157,0.528-0.551,0.595-0.873,0.148l-1.669-2.313
	c-0.322-0.447-1.036-0.802-1.586-0.789l-2.847,0.066c-0.551,0.013-0.736-0.34-0.412-0.786l1.681-2.305
	c0.324-0.445,0.441-1.235,0.259-1.755L80.396,8.03c-0.182-0.52,0.097-0.806,0.62-0.634l2.707,0.888
	c0.522,0.171,1.309,0.038,1.746-0.296L87.735,6.257z M104.055,53.394c0.375-0.511,0.826-0.432,1.004,0.177l0.917,3.155
	c0.177,0.609,0.813,1.271,1.415,1.47l3.113,1.031c0.601,0.199,0.666,0.654,0.141,1.011l-2.71,1.85
	c-0.523,0.358-0.956,1.169-0.958,1.803l-0.017,3.287c-0.004,0.634-0.416,0.836-0.917,0.447l-2.593-2.012
	c-0.5-0.389-1.404-0.549-2.007-0.356l-3.125,1c-0.604,0.193-0.922-0.138-0.708-0.734l1.109-3.093
	c0.214-0.598,0.087-1.508-0.283-2.024l-1.912-2.668c-0.37-0.515-0.154-0.921,0.478-0.901l3.279,0.1
	c0.633,0.019,1.458-0.383,1.832-0.894L104.055,53.394z M39.366,66.498c0,0,0.597-0.619,1.641-1.702
	c0.538-0.527,1.107-1.24,1.8-2.013c0.698-0.764,1.393-1.723,2.196-2.709c0.74-1.042,1.575-2.138,2.343-3.375
	c0.404-0.605,0.8-1.236,1.175-1.9c0.384-0.657,0.784-1.321,1.138-2.026c0.365-0.7,0.749-1.4,1.079-2.14
	c0.346-0.731,0.696-1.467,1-2.233c0.325-0.755,0.632-1.523,0.906-2.306c0.3-0.773,0.553-1.566,0.804-2.357
	c0.505-1.581,0.913-3.188,1.264-4.772c0.325-1.593,0.616-3.159,0.79-4.689c0.195-1.526,0.31-3.006,0.369-4.407
	c0.068-1.4,0.055-2.723,0.028-3.938c-0.083-2.428-0.305-4.427-0.524-5.779c-0.104-0.679-0.208-1.193-0.278-1.529
	c-0.074-0.35-0.11-0.458-0.105-0.434l7.617-1.351c0.041,0.202,0.411,3.939-0.191,9.378c-0.161,1.355-0.354,2.817-0.647,4.345
	c-0.284,1.529-0.638,3.126-1.085,4.753c-0.425,1.632-0.979,3.285-1.571,4.943c-0.618,1.651-1.297,3.303-2.072,4.907
	c-0.387,0.803-0.772,1.602-1.204,2.375c-0.408,0.784-0.845,1.546-1.298,2.291c-0.432,0.755-0.909,1.475-1.376,2.186
	c-0.453,0.719-0.956,1.394-1.435,2.063c-0.469,0.676-0.979,1.306-1.471,1.925c-0.481,0.626-0.98,1.216-1.48,1.777
	c-0.963,1.151-1.972,2.149-2.867,3.091c-0.958,0.888-1.781,1.742-2.6,2.417c-0.808,0.68-1.478,1.309-2.082,1.755
	C40.043,65.969,39.366,66.498,39.366,66.498z M47.98,66.437c0,0,0.559-0.52,1.538-1.43c0.49-0.455,1.084-1.007,1.765-1.64
	c0.346-0.312,0.692-0.667,1.097-0.998c0.415-0.325,0.849-0.666,1.304-1.021c0.915-0.708,1.896-1.51,2.974-2.302
	c1.12-0.729,2.301-1.498,3.523-2.293c1.245-0.768,2.614-1.423,3.977-2.167c0.674-0.393,1.418-0.639,2.136-0.963
	c0.728-0.307,1.459-0.615,2.19-0.923c0.744-0.277,1.509-0.5,2.265-0.751c0.762-0.225,1.506-0.53,2.28-0.683
	c1.54-0.343,3.058-0.761,4.571-0.928c0.754-0.1,1.496-0.24,2.229-0.298c0.737-0.05,1.458-0.098,2.16-0.146
	c0.704-0.067,1.392-0.034,2.059-0.037c0.667,0.016,1.315-0.019,1.936,0.045c0.624,0.046,1.221,0.09,1.789,0.132
	c0.57,0.048,1.109,0.142,1.619,0.207c1.02,0.119,1.913,0.339,2.653,0.484c0.746,0.188,1.331,0.333,1.764,0.479
	c0.386,0.111,0.756,0.264,0.736,0.255l-3.236,7.039c-0.022-0.006,0.004-0.019-0.277-0.154c-0.227-0.127-0.639-0.3-1.156-0.527
	c-0.544-0.194-1.191-0.482-1.995-0.706c-0.399-0.115-0.817-0.265-1.275-0.377c-0.459-0.109-0.943-0.225-1.447-0.344
	c-0.503-0.142-1.048-0.19-1.604-0.296c-0.559-0.086-1.135-0.214-1.74-0.249c-0.605-0.056-1.227-0.113-1.861-0.173
	c-0.639-0.053-1.293-0.028-1.962-0.049c-1.342-0.074-2.722,0.089-4.144,0.168c-0.715,0.021-1.413,0.194-2.132,0.285
	c-0.713,0.117-1.439,0.204-2.156,0.347c-0.71,0.175-1.422,0.349-2.129,0.523c-0.706,0.192-1.438,0.305-2.113,0.571
	c-1.365,0.49-2.755,0.895-4.044,1.43c-1.282,0.571-2.521,1.123-3.697,1.646c-1.142,0.585-2.191,1.2-3.187,1.74
	c-0.496,0.273-0.973,0.538-1.425,0.788c-0.45,0.26-0.849,0.558-1.239,0.81c-0.772,0.518-1.447,0.969-2.001,1.341
	C48.614,66.012,47.98,66.437,47.98,66.437z M35.62,62.119c0,0,0.073-0.089,0.211-0.256c0.134-0.17,0.349-0.406,0.587-0.729
	c0.225-0.335,0.52-0.704,0.792-1.188c0.295-0.464,0.578-1.019,0.874-1.617c0.134-0.308,0.274-0.626,0.419-0.958
	c0.126-0.336,0.258-0.685,0.392-1.043c0.116-0.363,0.236-0.737,0.358-1.118c0.103-0.387,0.208-0.781,0.314-1.183
	c0.392-1.613,0.659-3.365,0.812-5.124c0.314-3.519,0.143-7.065-0.113-9.682c-0.129-1.31-0.276-2.39-0.395-3.13
	c-0.062-0.362-0.111-0.646-0.144-0.84c-0.036-0.195-0.055-0.262-0.055-0.253l7.721-0.448c0,0-0.009,0.141-0.025,0.406
	c-0.022,0.235-0.055,0.58-0.096,1.019c-0.093,0.862-0.248,2.072-0.486,3.508c-0.479,2.869-1.306,6.653-2.637,10.281
	c-0.661,1.812-1.439,3.582-2.306,5.164c-0.225,0.39-0.446,0.773-0.663,1.15c-0.234,0.363-0.463,0.719-0.687,1.066
	c-0.24,0.334-0.473,0.658-0.697,0.974c-0.243,0.3-0.475,0.59-0.699,0.87c-0.473,0.538-0.908,1.019-1.332,1.409
	c-0.399,0.409-0.812,0.715-1.116,0.979c-0.318,0.253-0.585,0.422-0.758,0.553C35.714,62.051,35.62,62.119,35.62,62.119z
	 M54.561,53.185c0,0,0.421-0.452,1.159-1.243c0.729-0.798,1.814-1.905,3.035-3.293c0.611-0.69,1.274-1.438,1.975-2.229
	c0.702-0.785,1.403-1.656,2.147-2.531c0.748-0.873,1.493-1.797,2.236-2.746c0.753-0.938,1.506-1.898,2.227-2.881
	c0.365-0.487,0.729-0.973,1.092-1.458c0.348-0.494,0.694-0.985,1.038-1.473c0.699-0.966,1.337-1.946,1.957-2.887
	c0.626-0.937,1.173-1.872,1.714-2.74c0.501-0.886,1-1.711,1.398-2.491c0.423-0.772,0.763-1.486,1.07-2.113
	c0.283-0.627,0.535-1.175,0.701-1.611c0.184-0.442,0.29-0.771,0.357-0.974c0.025-0.089,0.057-0.185,0.057-0.203
	c-0.004-0.005-0.007-0.007-0.007-0.007l7.2,2.829c0,0-0.033,0.068-0.096,0.201c-0.049,0.089-0.121,0.223-0.214,0.397
	c-0.183,0.318-0.437,0.755-0.773,1.257c-0.33,0.52-0.748,1.096-1.226,1.761c-0.488,0.644-1.036,1.373-1.661,2.12
	c-0.609,0.769-1.313,1.542-2.037,2.379c-0.752,0.805-1.522,1.672-2.364,2.515c-0.837,0.849-1.694,1.726-2.604,2.572
	c-0.449,0.427-0.902,0.858-1.356,1.29c-0.465,0.418-0.932,0.839-1.4,1.259c-0.924,0.848-1.874,1.664-2.817,2.454
	c-0.932,0.802-1.859,1.576-2.778,2.298c-0.916,0.726-1.776,1.448-2.633,2.092c-0.85,0.646-1.654,1.258-2.396,1.821
	c-1.476,1.13-2.75,1.999-3.621,2.64C55.063,52.824,54.561,53.185,54.561,53.185z"/>
</svg>
