<?xml version="1.0" encoding="utf-8"?>
<!-- Generator: Adobe Illustrator 16.0.0, SVG Export Plug-In . SVG Version: 6.00 Build 0)  -->
<!DOCTYPE svg PUBLIC "-//W3C//DTD SVG 1.1//EN" "http://www.w3.org/Graphics/SVG/1.1/DTD/svg11.dtd">
<svg version="1.1" id="Layer_1" xmlns="http://www.w3.org/2000/svg" xmlns:xlink="http://www.w3.org/1999/xlink" x="0px" y="0px"
	 width="39.47px" height="39.474px" viewBox="0 0 39.47 39.474" enable-background="new 0 0 39.47 39.474" xml:space="preserve">
<path id="icon-perfil" fill="#FFFFFF" d="M19.735,2.905c4.084,0,8.416,3.438,8.416,6.007v6.014c0,2.313-0.959,6.74-3.543,8.773
	c-0.656,0.516-1.002,1.34-0.9,2.173c0.1,0.833,0.621,1.556,1.385,1.904l10.468,4.967c0.082,0.035,1.004,0.189,1.004,1.477v2.35
	H2.903V34.13c0-0.957,0.717-1.258,1.006-1.391l10.563-4.986c0.758-0.348,1.283-1.063,1.385-1.892
	c0.103-0.824-0.229-1.646-0.883-2.168c-2.498-2.007-3.662-6.416-3.662-8.766V8.914C11.31,6.397,15.687,2.905,19.735,2.905
	 M19.735,0.499c-5.314,0-10.834,4.436-10.834,8.413v6.014c0,2.626,1.201,7.94,4.563,10.64L2.901,30.553c0,0-2.402,1.071-2.402,2.404
	v3.611c0,1.326,1.074,2.406,2.402,2.406h33.663c1.328,0,2.406-1.078,2.406-2.406v-3.611c0-1.41-2.406-2.404-2.406-2.404
	l-10.469-4.962c3.332-2.626,4.464-7.775,4.464-10.664V8.913C30.557,4.933,25.044,0.499,19.735,0.499L19.735,0.499L19.735,0.499z"/>
</svg>
