<?xml version="1.0" encoding="utf-8"?>
<!-- Generator: Adobe Illustrator 16.0.0, SVG Export Plug-In . SVG Version: 6.00 Build 0)  -->
<!DOCTYPE svg PUBLIC "-//W3C//DTD SVG 1.1//EN" "http://www.w3.org/Graphics/SVG/1.1/DTD/svg11.dtd">
<svg version="1.1" id="Layer_1" xmlns="http://www.w3.org/2000/svg" xmlns:xlink="http://www.w3.org/1999/xlink" x="0px" y="0px"
	 width="225px" height="43px" viewBox="0 0 225 43" enable-background="new 0 0 225 43" xml:space="preserve">
<g>
	<polygon fill-rule="evenodd" clip-rule="evenodd" fill="#EFA730" points="0,5.641 7.758,2.117 202.832,5.641 220.567,37.362 
		213.917,41.589 146.308,43 0,41.589 4.432,24.673 0,5.641 	"/>
	<polygon fill-rule="evenodd" clip-rule="evenodd" fill="#FFB334" points="6.648,2.117 99.752,0 209.483,2.117 225,18.328 
		220.567,38.065 152.96,39.476 6.648,38.065 11.083,21.149 6.648,2.117 	"/>
	<g>
		<path fill="#FFFFFF" d="M28.307,27.672c-0.563,0-1.07-0.085-1.524-0.257c-0.455-0.171-0.845-0.406-1.174-0.702
			c-0.329-0.296-0.591-0.645-0.789-1.048c-0.197-0.403-0.32-0.842-0.368-1.315c-0.024-0.237-0.026-0.509-0.009-0.818
			c0.018-0.309,0.051-0.586,0.099-0.835l0.735-4.194c0.108-0.629,0.289-1.218,0.547-1.769c0.257-0.552,0.588-1.032,0.995-1.441
			c0.407-0.408,0.887-0.729,1.443-0.959c0.555-0.23,1.192-0.346,1.908-0.346h0.144c0.549,0,1.052,0.08,1.505,0.239
			c0.455,0.16,0.846,0.389,1.175,0.685c0.329,0.297,0.594,0.649,0.797,1.058c0.203,0.409,0.323,0.862,0.358,1.36
			c0.024,0.213,0.03,0.458,0.019,0.737c-0.013,0.278-0.036,0.542-0.071,0.791h-2.546c0.023-0.166,0.048-0.361,0.072-0.586
			c0.023-0.226,0.023-0.409,0-0.552c-0.036-0.367-0.162-0.669-0.377-0.906c-0.214-0.237-0.573-0.355-1.076-0.355h-0.142
			c-0.634,0-1.133,0.222-1.498,0.666c-0.365,0.445-0.607,0.987-0.726,1.626l-0.735,4.124c-0.024,0.166-0.048,0.349-0.072,0.55
			c-0.023,0.202-0.023,0.373,0,0.516c0.036,0.367,0.167,0.669,0.395,0.906c0.227,0.237,0.585,0.355,1.076,0.355h0.107
			c0.622,0,1.124-0.213,1.506-0.64c0.383-0.426,0.628-0.977,0.735-1.653l0.036-0.212h2.528c-0.048,0.639-0.189,1.258-0.421,1.857
			c-0.232,0.598-0.559,1.128-0.977,1.59c-0.418,0.462-0.926,0.832-1.523,1.111c-0.598,0.278-1.273,0.417-2.025,0.417H28.307z"/>
		<path fill="#FFFFFF" d="M39.026,27.672c-0.551,0-1.048-0.085-1.498-0.257c-0.447-0.171-0.838-0.406-1.173-0.702
			c-0.334-0.296-0.601-0.648-0.798-1.058c-0.197-0.409-0.32-0.85-0.367-1.324c-0.025-0.225-0.031-0.491-0.019-0.799
			c0.012-0.309,0.042-0.586,0.09-0.835l0.735-4.194c0.108-0.629,0.289-1.218,0.547-1.769c0.257-0.552,0.588-1.032,0.995-1.441
			c0.407-0.408,0.887-0.729,1.443-0.959c0.555-0.23,1.192-0.346,1.908-0.346h0.144c0.549,0,1.048,0.086,1.497,0.258
			s0.839,0.406,1.174,0.702c0.334,0.295,0.601,0.648,0.798,1.058c0.198,0.409,0.32,0.851,0.367,1.324
			c0.024,0.225,0.03,0.491,0.019,0.799c-0.013,0.309-0.042,0.586-0.089,0.835l-0.735,4.194c-0.108,0.628-0.29,1.217-0.546,1.769
			c-0.258,0.551-0.588,1.031-0.995,1.44c-0.407,0.409-0.887,0.729-1.443,0.959c-0.555,0.23-1.192,0.346-1.909,0.346H39.026z
			 M39.312,25.202c0.634,0,1.133-0.222,1.498-0.667c0.363-0.444,0.606-0.986,0.725-1.626l0.718-4.123
			c0.023-0.166,0.047-0.349,0.072-0.55c0.023-0.202,0.023-0.374,0-0.516c-0.037-0.367-0.187-0.669-0.449-0.906
			c-0.263-0.237-0.615-0.355-1.057-0.355h-0.071c-0.634,0-1.133,0.222-1.498,0.666c-0.365,0.445-0.607,0.987-0.726,1.626
			l-0.718,4.124c-0.023,0.166-0.048,0.349-0.072,0.55c-0.023,0.202-0.023,0.373,0,0.516c0.037,0.367,0.186,0.669,0.449,0.906
			c0.263,0.237,0.615,0.355,1.057,0.355H39.312z"/>
		<path fill="#FFFFFF" d="M51.951,27.495l-2.457-8.69h-0.018c-0.012,0.118-0.03,0.236-0.055,0.355
			c-0.023,0.095-0.042,0.205-0.053,0.328c-0.013,0.125-0.03,0.24-0.054,0.347l-1.362,7.66h-2.384l2.365-13.33h2.671l2.473,8.69
			h0.019c0.012-0.119,0.03-0.236,0.054-0.356c0.023-0.094,0.044-0.2,0.063-0.319c0.018-0.119,0.038-0.237,0.063-0.356l1.361-7.66
			h2.385l-2.367,13.33H51.951z"/>
		<path fill="#FFFFFF" d="M57.13,27.495l2.366-13.33h7.978l-0.431,2.364h-5.414l-0.52,2.968h4.446l-0.431,2.364H60.68l-0.986,5.634
			H57.13z"/>
		<path fill="#FFFFFF" d="M66.846,27.495l2.366-13.33h2.564l-2.366,13.33H66.846z"/>
		<path fill="#FFFFFF" d="M78.335,27.495c-0.131-0.178-0.212-0.415-0.241-0.711c-0.03-0.295-0.033-0.592-0.01-0.888l0.197-2.098
			c0.06-0.64-0.044-1.093-0.314-1.359c-0.269-0.266-0.743-0.399-1.424-0.399h-1.166l-0.95,5.456h-2.545l2.366-13.33h3.333
			c0.3,0,0.607,0.009,0.924,0.027c0.316,0.018,0.582,0.05,0.797,0.098c0.441,0.095,0.842,0.24,1.201,0.435
			c0.359,0.197,0.656,0.442,0.896,0.739c0.239,0.296,0.413,0.639,0.521,1.03c0.108,0.391,0.131,0.836,0.071,1.333
			c-0.071,0.581-0.303,1.147-0.698,1.697s-0.986,1.01-1.775,1.378v0.017c0.538,0.202,0.914,0.498,1.129,0.889
			c0.216,0.392,0.293,0.917,0.233,1.582l-0.233,2.292c-0.023,0.343-0.012,0.667,0.036,0.968c0.048,0.303,0.18,0.549,0.394,0.738
			l-0.018,0.106H78.335z M77.297,19.711c0.645,0,1.144-0.163,1.496-0.489c0.353-0.326,0.553-0.743,0.601-1.253
			c0.036-0.354-0.021-0.636-0.17-0.844c-0.149-0.207-0.374-0.352-0.672-0.435c-0.121-0.037-0.263-0.06-0.43-0.071
			c-0.168-0.012-0.36-0.019-0.574-0.019h-1.202l-0.537,3.111H77.297z"/>
		<path fill="#FFFFFF" d="M89.414,27.495l-0.27-3.431h-3.406l-1.488,3.431H81.58l6.059-13.33h3.012l1.327,13.33H89.414z
			 M88.625,17.437h-0.072l-1.756,4.211h2.151L88.625,17.437z"/>
		<path fill="#FFFFFF" d="M101.478,27.672c-0.551,0-1.05-0.085-1.498-0.257c-0.447-0.171-0.839-0.406-1.174-0.702
			c-0.334-0.296-0.6-0.648-0.798-1.058c-0.196-0.409-0.319-0.85-0.367-1.324c-0.024-0.225-0.03-0.491-0.019-0.799
			s0.043-0.586,0.09-0.835l0.735-4.194c0.108-0.629,0.29-1.218,0.547-1.769c0.256-0.552,0.589-1.032,0.996-1.441
			c0.406-0.408,0.887-0.729,1.442-0.959s1.192-0.346,1.909-0.346h0.144c0.548,0,1.048,0.086,1.496,0.258
			c0.449,0.172,0.84,0.406,1.175,0.702c0.334,0.295,0.601,0.648,0.797,1.058c0.197,0.409,0.32,0.851,0.368,1.324
			c0.023,0.225,0.029,0.491,0.018,0.799c-0.012,0.309-0.041,0.586-0.089,0.835l-0.735,4.194c-0.107,0.628-0.29,1.217-0.547,1.769
			c-0.256,0.551-0.588,1.031-0.994,1.44c-0.407,0.409-0.888,0.729-1.443,0.959c-0.556,0.23-1.192,0.346-1.91,0.346H101.478z
			 M101.764,25.202c0.634,0,1.132-0.222,1.498-0.667c0.364-0.444,0.606-0.986,0.726-1.626l0.717-4.123
			c0.024-0.166,0.048-0.349,0.072-0.55c0.023-0.202,0.023-0.374,0-0.516c-0.036-0.367-0.186-0.669-0.449-0.906
			c-0.262-0.237-0.615-0.355-1.058-0.355h-0.071c-0.633,0-1.133,0.222-1.497,0.666c-0.366,0.445-0.607,0.987-0.727,1.626
			l-0.717,4.124c-0.024,0.166-0.049,0.349-0.072,0.55c-0.023,0.202-0.023,0.373,0,0.516c0.036,0.367,0.185,0.669,0.448,0.906
			c0.263,0.237,0.615,0.355,1.057,0.355H101.764z"/>
		<path fill="#FFFFFF" d="M115.243,18.306c0.037-0.26,0.039-0.509,0.01-0.746c-0.029-0.236-0.1-0.447-0.207-0.63
			c-0.107-0.183-0.262-0.332-0.467-0.444c-0.202-0.114-0.453-0.17-0.752-0.17c-0.311,0-0.576,0.043-0.798,0.125
			c-0.222,0.083-0.4,0.189-0.537,0.32c-0.138,0.129-0.239,0.278-0.305,0.444c-0.066,0.166-0.105,0.326-0.117,0.48
			c-0.035,0.438,0.05,0.788,0.26,1.048c0.208,0.261,0.51,0.479,0.905,0.657l0.752,0.337c0.407,0.179,0.804,0.391,1.192,0.641
			c0.389,0.249,0.726,0.542,1.014,0.879c0.286,0.338,0.503,0.732,0.653,1.183s0.188,0.959,0.117,1.528
			c-0.072,0.604-0.245,1.138-0.519,1.599c-0.276,0.462-0.619,0.851-1.031,1.164c-0.412,0.314-0.879,0.551-1.398,0.711
			c-0.519,0.161-1.066,0.239-1.64,0.239c-0.706,0-1.331-0.112-1.873-0.337c-0.544-0.225-0.996-0.536-1.354-0.933
			c-0.359-0.396-0.622-0.862-0.79-1.395c-0.167-0.534-0.232-1.109-0.196-1.724h2.581c-0.023,0.271-0.003,0.532,0.062,0.781
			c0.066,0.249,0.171,0.469,0.314,0.657c0.143,0.191,0.326,0.341,0.547,0.453c0.22,0.114,0.48,0.17,0.779,0.17
			c0.538,0,0.986-0.145,1.345-0.436c0.358-0.291,0.561-0.696,0.609-1.217c0.024-0.237-0.009-0.453-0.098-0.648
			c-0.09-0.196-0.207-0.371-0.349-0.525c-0.144-0.153-0.306-0.287-0.484-0.4c-0.179-0.112-0.353-0.205-0.52-0.276l-0.753-0.337
			c-0.466-0.201-0.881-0.426-1.246-0.675c-0.365-0.249-0.666-0.54-0.904-0.871c-0.239-0.332-0.407-0.705-0.503-1.119
			c-0.096-0.415-0.108-0.884-0.036-1.404c0.084-0.569,0.261-1.07,0.529-1.502s0.601-0.794,0.995-1.084
			c0.394-0.292,0.843-0.507,1.345-0.649s1.027-0.213,1.578-0.213c0.574,0,1.102,0.072,1.585,0.213
			c0.484,0.142,0.903,0.355,1.255,0.639c0.354,0.285,0.628,0.637,0.825,1.058c0.198,0.421,0.295,0.909,0.295,1.466
			c0,0.13-0.008,0.27-0.025,0.418c-0.02,0.147-0.039,0.323-0.064,0.523H115.243z"/>
		<path fill="#FFFFFF" d="M122.199,27.495l2.365-13.33h3.818c0.383,0,0.753,0.024,1.113,0.071c0.358,0.047,0.655,0.118,0.895,0.213
			c0.767,0.296,1.36,0.803,1.784,1.52c0.424,0.717,0.595,1.544,0.512,2.479c-0.084,0.924-0.389,1.724-0.915,2.399
			c-0.525,0.676-1.194,1.168-2.007,1.475c-0.239,0.096-0.527,0.166-0.859,0.214c-0.336,0.046-0.706,0.07-1.113,0.07h-2.168
			l-0.86,4.888H122.199z M127.88,20.172c0.312,0,0.566-0.021,0.763-0.062c0.196-0.042,0.368-0.098,0.512-0.17
			c0.274-0.142,0.498-0.352,0.671-0.63c0.173-0.278,0.272-0.589,0.295-0.934c0.037-0.343-0.006-0.648-0.125-0.916
			c-0.121-0.267-0.293-0.465-0.521-0.594c-0.239-0.166-0.632-0.249-1.183-0.249h-1.612l-0.628,3.554H127.88z"/>
		<path fill="#FFFFFF" d="M139.516,27.495c-0.132-0.178-0.214-0.415-0.243-0.711c-0.029-0.295-0.033-0.592-0.01-0.888l0.198-2.098
			c0.061-0.64-0.045-1.093-0.313-1.359c-0.271-0.266-0.745-0.399-1.426-0.399h-1.165l-0.951,5.456h-2.544l2.365-13.33h3.334
			c0.3,0,0.607,0.009,0.924,0.027c0.317,0.018,0.583,0.05,0.797,0.098c0.442,0.095,0.842,0.24,1.202,0.435
			c0.358,0.197,0.656,0.442,0.895,0.739c0.239,0.296,0.412,0.639,0.521,1.03c0.107,0.391,0.13,0.836,0.072,1.333
			c-0.072,0.581-0.306,1.147-0.7,1.697c-0.395,0.55-0.986,1.01-1.774,1.378v0.017c0.537,0.202,0.914,0.498,1.128,0.889
			c0.216,0.392,0.294,0.917,0.233,1.582l-0.233,2.292c-0.023,0.343-0.012,0.667,0.037,0.968c0.046,0.303,0.179,0.549,0.395,0.738
			l-0.019,0.106H139.516z M138.475,19.711c0.646,0,1.144-0.163,1.498-0.489c0.352-0.326,0.552-0.743,0.599-1.253
			c0.037-0.354-0.021-0.636-0.169-0.844c-0.15-0.207-0.374-0.352-0.673-0.435c-0.119-0.037-0.263-0.06-0.43-0.071
			c-0.167-0.012-0.358-0.019-0.574-0.019h-1.2l-0.539,3.111H138.475z"/>
		<path fill="#FFFFFF" d="M148.153,27.672c-0.548,0-1.048-0.085-1.496-0.257c-0.449-0.171-0.84-0.406-1.175-0.702
			c-0.334-0.296-0.601-0.648-0.797-1.058c-0.197-0.409-0.319-0.85-0.368-1.324c-0.023-0.225-0.029-0.491-0.018-0.799
			s0.041-0.586,0.089-0.835l0.735-4.194c0.107-0.629,0.29-1.218,0.546-1.769c0.257-0.552,0.589-1.032,0.994-1.441
			c0.407-0.408,0.889-0.729,1.443-0.959c0.556-0.23,1.192-0.346,1.91-0.346h0.144c0.549,0,1.048,0.086,1.496,0.258
			c0.449,0.172,0.84,0.406,1.175,0.702c0.334,0.295,0.601,0.648,0.797,1.058c0.196,0.409,0.319,0.851,0.368,1.324
			c0.023,0.225,0.029,0.491,0.018,0.799c-0.012,0.309-0.043,0.586-0.09,0.835l-0.735,4.194c-0.107,0.628-0.29,1.217-0.547,1.769
			s-0.589,1.031-0.994,1.44c-0.407,0.409-0.889,0.729-1.443,0.959c-0.556,0.23-1.192,0.346-1.91,0.346H148.153z M148.441,25.202
			c0.632,0,1.132-0.222,1.496-0.667c0.366-0.444,0.607-0.986,0.728-1.626l0.716-4.123c0.025-0.166,0.049-0.349,0.072-0.55
			c0.023-0.202,0.023-0.374,0-0.516c-0.035-0.367-0.185-0.669-0.447-0.906c-0.263-0.237-0.617-0.355-1.058-0.355h-0.072
			c-0.634,0-1.132,0.222-1.496,0.666c-0.365,0.445-0.606,0.987-0.727,1.626l-0.716,4.124c-0.025,0.166-0.049,0.349-0.072,0.55
			c-0.025,0.202-0.025,0.373,0,0.516c0.035,0.367,0.185,0.669,0.447,0.906c0.263,0.237,0.617,0.355,1.058,0.355H148.441z"/>
		<path fill="#FFFFFF" d="M154.697,27.495l2.367-13.33h3.871c0.729,0,1.321,0.095,1.776,0.284c0.646,0.262,1.161,0.661,1.55,1.2
			c0.389,0.539,0.618,1.158,0.69,1.857c0.023,0.226,0.029,0.493,0.018,0.799c-0.012,0.309-0.043,0.587-0.09,0.836l-0.681,3.838
			c-0.179,1.02-0.544,1.914-1.093,2.685c-0.55,0.77-1.297,1.304-2.241,1.599c-0.239,0.071-0.505,0.127-0.799,0.169
			c-0.292,0.041-0.599,0.062-0.922,0.062H154.697z M162.351,18.964c0.025-0.166,0.048-0.349,0.072-0.551
			c0.025-0.201,0.025-0.373,0-0.515c-0.035-0.367-0.169-0.67-0.402-0.907c-0.233-0.236-0.642-0.354-1.228-0.354h-1.632l-1.488,8.406
			h1.595c0.228,0,0.451-0.027,0.673-0.08c0.222-0.054,0.409-0.127,0.564-0.223c0.312-0.202,0.566-0.478,0.763-0.827
			c0.196-0.349,0.336-0.743,0.42-1.182L162.351,18.964z"/>
		<path fill="#FFFFFF" d="M170.22,27.672c-0.56,0-1.07-0.085-1.523-0.257c-0.455-0.171-0.846-0.406-1.175-0.702
			c-0.329-0.296-0.591-0.645-0.788-1.048c-0.197-0.403-0.321-0.842-0.368-1.315c-0.023-0.237-0.027-0.509-0.01-0.818
			c0.02-0.309,0.05-0.586,0.099-0.835l1.523-8.532h2.563l-1.56,8.709c-0.023,0.166-0.047,0.349-0.07,0.55
			c-0.025,0.202-0.025,0.373,0,0.516c0.035,0.367,0.167,0.669,0.393,0.906c0.228,0.237,0.585,0.355,1.076,0.355h0.109
			c0.62,0,1.12-0.222,1.496-0.667c0.377-0.444,0.625-0.986,0.745-1.626l1.541-8.744h2.563l-1.595,8.993
			c-0.107,0.628-0.29,1.217-0.546,1.769s-0.589,1.031-0.996,1.44c-0.406,0.409-0.887,0.729-1.443,0.959
			c-0.555,0.23-1.19,0.346-1.908,0.346H170.22z"/>
		<path fill="#FFFFFF" d="M179.237,27.495l1.918-10.876h-3.334l0.448-2.453h9.213l-0.447,2.453h-3.316l-1.917,10.876H179.237z"/>
		<path fill="#FFFFFF" d="M190.854,27.672c-0.55,0-1.048-0.085-1.498-0.257c-0.448-0.171-0.838-0.406-1.173-0.702
			c-0.335-0.296-0.601-0.648-0.798-1.058c-0.198-0.409-0.321-0.85-0.368-1.324c-0.025-0.225-0.031-0.491-0.019-0.799
			c0.011-0.309,0.042-0.586,0.091-0.835l0.733-4.194c0.109-0.629,0.29-1.218,0.546-1.769c0.259-0.552,0.589-1.032,0.996-1.441
			c0.407-0.408,0.887-0.729,1.443-0.959c0.557-0.23,1.192-0.346,1.908-0.346h0.144c0.55,0,1.048,0.086,1.498,0.258
			c0.447,0.172,0.838,0.406,1.173,0.702c0.334,0.295,0.601,0.648,0.797,1.058c0.199,0.409,0.321,0.851,0.368,1.324
			c0.025,0.225,0.031,0.491,0.02,0.799c-0.014,0.309-0.043,0.586-0.091,0.835l-0.733,4.194c-0.109,0.628-0.29,1.217-0.548,1.769
			c-0.257,0.551-0.587,1.031-0.994,1.44c-0.406,0.409-0.887,0.729-1.443,0.959c-0.556,0.23-1.192,0.346-1.908,0.346H190.854z
			 M191.139,25.202c0.634,0,1.132-0.222,1.498-0.667c0.364-0.444,0.607-0.986,0.726-1.626l0.717-4.123
			c0.023-0.166,0.047-0.349,0.072-0.55c0.023-0.202,0.023-0.374,0-0.516c-0.037-0.367-0.187-0.669-0.449-0.906
			c-0.263-0.237-0.615-0.355-1.058-0.355h-0.07c-0.634,0-1.134,0.222-1.498,0.666c-0.364,0.445-0.607,0.987-0.726,1.626
			l-0.718,4.124c-0.023,0.166-0.046,0.349-0.072,0.55c-0.023,0.202-0.023,0.373,0,0.516c0.037,0.367,0.187,0.669,0.449,0.906
			s0.615,0.355,1.056,0.355H191.139z"/>
		<path fill="#FFFFFF" d="M204.619,18.306c0.037-0.26,0.039-0.509,0.01-0.746c-0.029-0.236-0.099-0.447-0.206-0.63
			c-0.107-0.183-0.263-0.332-0.467-0.444c-0.203-0.114-0.454-0.17-0.753-0.17c-0.311,0-0.576,0.043-0.797,0.125
			c-0.222,0.083-0.401,0.189-0.537,0.32c-0.138,0.129-0.239,0.278-0.305,0.444c-0.066,0.166-0.105,0.326-0.117,0.48
			c-0.035,0.438,0.051,0.788,0.261,1.048c0.208,0.261,0.509,0.479,0.904,0.657l0.753,0.337c0.406,0.179,0.803,0.391,1.192,0.641
			c0.389,0.249,0.725,0.542,1.013,0.879c0.286,0.338,0.504,0.732,0.653,1.183c0.15,0.45,0.189,0.959,0.117,1.528
			c-0.072,0.604-0.245,1.138-0.519,1.599c-0.276,0.462-0.619,0.851-1.031,1.164c-0.413,0.314-0.879,0.551-1.399,0.711
			c-0.519,0.161-1.066,0.239-1.64,0.239c-0.706,0-1.33-0.112-1.873-0.337c-0.544-0.225-0.996-0.536-1.354-0.933
			c-0.358-0.396-0.623-0.862-0.79-1.395c-0.167-0.534-0.231-1.109-0.196-1.724h2.581c-0.023,0.271-0.002,0.532,0.063,0.781
			c0.066,0.249,0.171,0.469,0.315,0.657c0.142,0.191,0.325,0.341,0.546,0.453c0.22,0.114,0.48,0.17,0.78,0.17
			c0.537,0,0.984-0.145,1.344-0.436c0.358-0.291,0.563-0.696,0.609-1.217c0.023-0.237-0.008-0.453-0.099-0.648
			c-0.089-0.196-0.206-0.371-0.348-0.525c-0.144-0.153-0.305-0.287-0.484-0.4c-0.179-0.112-0.352-0.205-0.52-0.276l-0.752-0.337
			c-0.467-0.201-0.883-0.426-1.247-0.675c-0.363-0.249-0.667-0.54-0.904-0.871c-0.239-0.332-0.406-0.705-0.502-1.119
			c-0.097-0.415-0.109-0.884-0.037-1.404c0.083-0.569,0.26-1.07,0.529-1.502s0.601-0.794,0.996-1.084
			c0.393-0.292,0.842-0.507,1.344-0.649c0.502-0.142,1.027-0.213,1.578-0.213c0.574,0,1.103,0.072,1.585,0.213
			c0.484,0.142,0.903,0.355,1.255,0.639c0.354,0.285,0.628,0.637,0.825,1.058c0.198,0.421,0.295,0.909,0.295,1.466
			c0,0.13-0.008,0.27-0.025,0.418c-0.02,0.147-0.039,0.323-0.064,0.523H204.619z"/>
	</g>
</g>
</svg>
