<?xml version="1.0" encoding="utf-8"?>
<!-- Generator: Adobe Illustrator 16.0.0, SVG Export Plug-In . SVG Version: 6.00 Build 0)  -->
<!DOCTYPE svg PUBLIC "-//W3C//DTD SVG 1.1//EN" "http://www.w3.org/Graphics/SVG/1.1/DTD/svg11.dtd">
<svg version="1.1" id="Layer_1" xmlns="http://www.w3.org/2000/svg" xmlns:xlink="http://www.w3.org/1999/xlink" x="0px" y="0px"
	 width="37.74px" height="37.744px" viewBox="0 0 37.74 37.744" enable-background="new 0 0 37.74 37.744" xml:space="preserve">
<path fill="#FFFFFF" d="M18.867,0.501c-10.146,0-18.369,8.225-18.369,18.374c0,10.145,8.227,18.368,18.369,18.368
	c10.147,0,18.375-8.225,18.375-18.368C37.242,8.725,29.015,0.501,18.867,0.501z M18.867,34.984c-8.861,0-16.072-7.249-16.072-16.109
	c0-8.866,7.209-16.076,16.072-16.076c8.866,0,16.075,7.21,16.075,16.076C34.943,27.734,27.733,34.984,18.867,34.984z M20.494,18.873
	l4.871-4.871c0.446-0.45,0.446-1.178,0-1.625c-0.449-0.446-1.177-0.446-1.625,0l-4.871,4.871l-4.871-4.871
	c-0.449-0.446-1.176-0.446-1.625,0c-0.449,0.448-0.449,1.176,0,1.625l4.871,4.871l-4.871,4.869c-0.449,0.45-0.449,1.178,0,1.625
	c0.449,0.45,1.176,0.45,1.625,0l4.871-4.869l4.871,4.869c0.448,0.45,1.176,0.45,1.625,0c0.446-0.448,0.446-1.176,0-1.625
	L20.494,18.873z"/>
</svg>
